<svg version="1.2" xmlns="http://www.w3.org/2000/svg" viewBox="0 0 1865 1309" width="1865" height="1309"><defs><clipPath clipPathUnits="userSpaceOnUse" id="cp1"><path d="m-193-732h2480v3508h-2480z"/></clipPath></defs><style>.A{fill:#102694}.B{fill:#fb3199}</style><g clip-path="url(#cp1)"><path class="A" d="m627.4 940.9l533.9-904.4c0 0 276.7-28.5 444.6 97.1l-211.3 248.2c0 0-160.3-101.8-339.8 14c-179.4 115.8-118.1 385.5-79.6 449.7c0 0 64.7 159.8 273.2 165.4c0 0 114.9-5.4 188.4-72.9l245.3 213.5c0 0-213.3 218.1-636.8 139.5c0 0-292.1-64.9-417.9-350.1z"/><path class="B" d="m1195 551.3c56.2-3.7 104.7 38.9 108.3 95.1c3.7 56.1-38.9 104.6-95.1 108.3c-56.2 3.6-104.7-38.9-108.3-95.1c-3.7-56.2 38.9-104.7 95.1-108.3zm-217.5-437l-143.7 248c0 0-133-90.4-318.9-89.5c-185.9 1-166.2 102.3-131.1 136.9c35.1 34.6 90.8 45.2 206.1 60.9c115.2 15.8 162.8 32.9 162.8 32.9l-153.3 269.7c0 0-192.9-13.7-353.1-68c-160.2-54.3-242.8-171.6-236-346c6.9-174.4 166.5-302.1 314.1-333.9c147.6-31.9 433.1-58.5 653.1 89zm-976.5 984.9l172-245.7c0 0 114.5 96.7 353.2 114.5c0 0 86.4 178.4 219.4 265.8c0 0-376.6 130.6-744.6-134.6z"/><path class="B" d="m1623.2 184l2.7-0.2c53.6-3.5 133.2 129.2 158.2 172.7c36.2 62.8 72.3 170.4 78.6 266.3l0.3 5.4c6.3 97.4-15.2 203.5-42.7 272.4c-18.6 46.7-81.7 190.1-135.3 193.5l-2.7 0.2c-29.7 1.9-58.3-23.3-60.2-52.9c-1.9-29.4 33.1-65.2 46.8-88.4c18.8-32 30.1-57.1 45.1-92.4c21.6-50.7 45.8-156.2 41.1-228.1c-4.6-70.6-41.8-172.6-69.2-219.1c-19.5-33-34.3-56.8-56.6-86c-16.5-21.5-57.1-53.7-59-83.2c-1.9-29.3 23.6-58.3 52.9-60.2z"/><path class="B" d="m1446.3 372.2c-1.8-27.9 22.5-55.6 50.4-57.4l5.4-0.3c43.4-2.8 102.4 84.2 121.1 116.5c26.9 46.5 56.1 113.9 60.7 185.4l2.1 32.3c4.7 71.5-15.5 142.1-36.2 191.7c-14.4 34.5-61.6 128.4-105.1 131.3l-5.3 0.3c-27.9 1.8-55.6-22.5-57.4-50.4l-0.4-5.4c-1.5-23.7 50.6-90.8 64.3-121.3c16.5-36.5 32.3-99.6 28.8-152.5l-0.3-5.4c-3.4-52.2-27.5-113.7-48.3-147.4c-17.6-28.5-77.9-88.3-79.5-112z"/><path class="B" d="m1317 505c-1.7-26.4 21.1-55.5 47.7-57.2l10.7-0.7c56.8-3.7 121.9 126.7 126.3 194.7l0.3 5.4c4.4 68-43 205.6-100 209.3l-10.7 0.7c-27 1.8-53-23.7-54.7-50.5l-0.2-2.7c-2.6-40.8 57.4-74 52.3-152.2c-4.8-74.5-69.3-109.2-71.2-138.7z"/></g></svg>